<svg width="130" height="48" viewBox="0 0 130 48" fill="none" xmlns="http://www.w3.org/2000/svg">
<path d="M65.5152 24.9083V21.0997H77.1753V33.0968H73.2495L72.9859 30.1818H72.7661C72.1802 31.1583 71.2573 31.9396 69.9976 32.5255C68.7378 33.1017 67.3316 33.3898 65.7788 33.3898C62.8491 33.3898 60.4907 32.3937 58.7036 30.4015C56.9263 28.3898 56.0376 25.7189 56.0376 22.3888C56.0376 18.9415 57.0142 16.1828 58.9673 14.1124C60.9204 12.0128 63.5327 10.963 66.8042 10.963C69.3335 10.963 71.4917 11.6124 73.2788 12.9113C75.0562 14.2003 76.0767 15.9093 76.3404 18.0382H71.3306C71.0767 17.1593 70.5396 16.466 69.7193 15.9581C68.8989 15.4406 67.9175 15.1818 66.7749 15.1818C64.9781 15.1818 63.5913 15.8165 62.6148 17.0861C61.648 18.3556 61.1646 20.1134 61.1646 22.3595C61.1646 24.6154 61.6529 26.3341 62.6294 27.5158C63.606 28.6974 64.9585 29.2882 66.687 29.2882C68.1323 29.2882 69.3238 28.8878 70.2613 28.0871C71.2085 27.2863 71.7652 26.2267 71.9312 24.9083H65.5152Z" fill="white"/>
<path d="M85.5103 33.0968H80.9546V17.0128H84.939L85.5103 20.0744H85.7007C86.5015 17.838 88.1616 16.7199 90.6812 16.7199V20.7042C88.9624 20.6945 87.6685 21.1632 86.7993 22.1105C85.94 23.048 85.5103 24.4201 85.5103 26.2267V33.0968Z" fill="white"/>
<path d="M91.5015 28.6876C91.5015 27.0665 92.0825 25.7872 93.2447 24.8497C94.4165 23.9122 95.9888 23.4435 97.9614 23.4435H101.638V22.506C101.638 21.7638 101.423 21.1974 100.994 20.8068C100.564 20.4162 99.9732 20.2208 99.2212 20.2208C98.4693 20.2208 97.8589 20.4015 97.3902 20.7628C96.9312 21.1242 96.6773 21.6076 96.6284 22.213H92.1607C92.2876 20.5333 93.0054 19.2003 94.314 18.214C95.6323 17.2179 97.3169 16.7199 99.3677 16.7199C101.575 16.7199 103.264 17.2423 104.436 18.2872C105.618 19.3322 106.209 20.7872 106.209 22.6525V28.922C106.209 29.6056 106.467 29.9474 106.985 29.9474C107.131 29.9474 107.302 29.9279 107.498 29.8888V33.0675C106.726 33.2433 105.974 33.3312 105.242 33.3312C103.123 33.3312 102.004 32.4425 101.887 30.6652H101.638C101.355 31.505 100.769 32.1691 99.8804 32.6574C99.0015 33.1456 97.9517 33.3898 96.731 33.3898C95.1294 33.3898 93.855 32.9699 92.9077 32.13C91.9702 31.2804 91.5015 30.1329 91.5015 28.6876ZM96.1304 28.1163C96.1304 28.6925 96.3257 29.1417 96.7163 29.464C97.1167 29.7863 97.6587 29.9474 98.3423 29.9474C99.3482 29.9474 100.149 29.6544 100.745 29.0685C101.34 28.4826 101.638 27.7062 101.638 26.7394V26.1974H98.7085C96.9898 26.1974 96.1304 26.8371 96.1304 28.1163Z" fill="white"/>
<path d="M128.02 14.2589C126.526 14.2589 125.779 14.9181 125.779 16.2365V17.0128H129.324V20.7042H125.779V33.0968H121.223V20.7042H115.584V33.0968H110.984V20.7042H107.981V17.0128H110.984V15.8996C110.984 14.1417 111.501 12.8087 112.537 11.9005C113.572 10.9923 115.017 10.5382 116.873 10.5382C117.761 10.5382 118.508 10.6261 119.114 10.8019V14.4054C118.606 14.3078 118.167 14.2589 117.795 14.2589C116.321 14.2589 115.584 14.9181 115.584 16.2365V17.0128H121.223V15.8996C121.223 14.1417 121.731 12.8087 122.747 11.9005C123.772 10.9923 125.222 10.5382 127.097 10.5382C128.005 10.5382 128.748 10.6261 129.324 10.8019V14.4054C128.816 14.3078 128.381 14.2589 128.02 14.2589Z" fill="white"/>
<path d="M21.807 44.8336C21.1461 44.1593 21.1869 43.0547 21.8957 42.4333L43.4312 23.5561L24.1206 44.7889C23.5013 45.4697 22.4511 45.4901 21.807 44.8336Z" fill="url(#paint0_linear_453_353)"/>
<path d="M23.7255 1.18398C23.0645 0.510072 21.981 0.551684 21.3717 1.27438L2.85749 23.2321L23.6819 3.54295C24.3498 2.91145 24.3696 1.84069 23.7255 1.18398Z" fill="url(#paint1_linear_453_353)"/>
<path d="M0.473584 22.3944C1.13497 21.72 2.21783 21.7568 2.83378 22.4745L24.1345 47.2957L0.512302 24.7641C-0.155237 24.1273 -0.17279 23.0534 0.473584 22.3944Z" fill="url(#paint2_linear_453_353)"/>
<path d="M42.7971 23.1287C43.458 22.455 43.4155 21.35 42.7049 20.7309L21.974 2.66658L40.4868 23.0826C41.1047 23.7637 42.1536 23.7846 42.7971 23.1287Z" fill="url(#paint3_linear_453_353)"/>
<defs>
<linearGradient id="paint0_linear_453_353" x1="2.62124" y1="46.2189" x2="33.0036" y2="-35.2267" gradientUnits="userSpaceOnUse">
<stop stop-color="#001427"/>
<stop offset="0.3" stop-color="#E0FF88"/>
<stop offset="1" stop-color="white" stop-opacity="0"/>
</linearGradient>
<linearGradient id="paint1_linear_453_353" x1="-2.42841" y1="46.4508" x2="25.3817" y2="-33.4772" gradientUnits="userSpaceOnUse">
<stop stop-color="white" stop-opacity="0"/>
<stop offset="0.7" stop-color="#E0FF88"/>
<stop offset="1" stop-color="#001427"/>
</linearGradient>
<linearGradient id="paint2_linear_453_353" x1="2.64495" y1="1.55311" x2="30.6554" y2="81.7553" gradientUnits="userSpaceOnUse">
<stop stop-color="#001427"/>
<stop offset="0.3" stop-color="#E0FF88"/>
<stop offset="1" stop-color="white" stop-opacity="0"/>
</linearGradient>
<linearGradient id="paint3_linear_453_353" x1="42.8204" y1="23.1047" x2="21.9778" y2="2.66277" gradientUnits="userSpaceOnUse">
<stop stop-color="#001427"/>
<stop offset="0.3" stop-color="#E0FF88"/>
<stop offset="1" stop-color="white" stop-opacity="0"/>
</linearGradient>
</defs>
</svg>
